<?xml version="1.0" encoding="UTF-8"?>
<!DOCTYPE svg PUBLIC "-//W3C//DTD SVG 1.1//EN" "http://www.w3.org/Graphics/SVG/1.1/DTD/svg11.dtd">
<!-- Creator: CorelDRAW 2017 -->
<svg xmlns="http://www.w3.org/2000/svg" xml:space="preserve" width="380px" height="350px" version="1.1" style="shape-rendering:geometricPrecision; text-rendering:geometricPrecision; image-rendering:optimizeQuality; fill-rule:evenodd; clip-rule:evenodd"
viewBox="0 0 45.8 42.15"
 xmlns:xlink="http://www.w3.org/1999/xlink">
 <defs>
  <style type="text/css">
   <![CDATA[
    .str0 {stroke:#282828;stroke-width:0.23;stroke-miterlimit:22.9256}
    .str1 {stroke:#383239;stroke-width:0.23;stroke-miterlimit:22.9256}
    .str2 {stroke:#E4E7E2;stroke-width:0.23;stroke-miterlimit:22.9256}
    .str4 {stroke:white;stroke-width:0.23;stroke-miterlimit:22.9256}
    .str3 {stroke:white;stroke-width:0.23;stroke-linecap:round;stroke-miterlimit:22.9256;stroke-dasharray:298.240000 298.270000}
    .fil10 {fill:none}
    .fil7 {fill:black}
    .fil17 {fill:#111C31}
    .fil1 {fill:#2C262D}
    .fil0 {fill:#38313B}
    .fil8 {fill:#383239}
    .fil3 {fill:#39323A}
    .fil11 {fill:#3A303D}
    .fil14 {fill:#555C69}
    .fil9 {fill:#5C5960}
    .fil13 {fill:#7296B0}
    .fil12 {fill:#99BFDA}
    .fil15 {fill:#BAC1CA}
    .fil2 {fill:#E4E4E8}
    .fil5 {fill:#E4E7E2}
    .fil4 {fill:#F6F5F3}
    .fil6 {fill:#F7F7F7}
    .fil18 {fill:white}
    .fil16 {fill:#F7F7F7;fill-opacity:0.149020}
   ]]>
  </style>
 </defs>
 <g id="Слой_x0020_1">
  <metadata id="CorelCorpID_0Corel-Layer"/>
  <g id="_636793024">
   <path class="fil0" d="M5.94 22.27c0.42,0.41 0.28,1.01 0.17,1.33 -0.08,0.23 -0.33,0.66 -0.67,0.82 -0.61,0.3 -1.72,-0.03 -1.98,-0.16 -0.37,-0.18 -0.55,-0.33 -0.67,-0.5 -0.5,-0.66 -0.61,-1.06 -0.33,-1.16 0.28,-0.1 0.71,0.58 1,0.66 0.29,0.09 0.89,0.2 1.16,-0.33 0.16,-0.33 0.11,-0.46 0,-0.5 -0.12,-0.03 -0.39,0.05 -0.5,0 -0.17,-0.06 -0.43,-0.39 -0.17,-0.66 0.17,-0.16 0.75,-0.05 1,0 0.28,0.05 0.83,0.33 0.99,0.5z"/>
   <path class="fil1" d="M5.44 24.42c-0.61,0.3 -1.72,-0.03 -1.98,-0.16 -0.37,-0.18 -0.55,-0.33 -0.67,-0.5 -0.5,-0.66 -0.41,-0.75 -0.41,-0.75 0,0 0.46,1 1.49,1.17 0.51,0.08 1.01,0.14 1.33,0.16 0.29,0.02 0.41,0 0.24,0.08z"/>
   <ellipse class="fil1" transform="matrix(0.290523 -0.671232 0.671232 0.290523 5.80221 23.5758)" rx="1.04" ry="0.48"/>
   <path class="fil2" d="M6.69 23.18l-0.5 -0.17c0,0 -0.25,0.09 -0.41,0.42 -0.19,0.38 -0.09,0.75 -0.09,0.75l0.67 0.16 0.33 -1.16z"/>
   <path class="fil3" d="M12.96 24.41c-0.02,-0.2 -0.17,-0.32 -0.34,-0.43 -0.56,-0.38 -1.55,-0.8 -2.55,-1.05 -1.33,-0.33 -2.32,-0.33 -2.98,-0.33 -0.24,0 -0.42,0.13 -0.53,0.35 -0.1,0.2 -0.22,0.5 -0.3,0.81 -0.04,0.12 -0.07,0.33 -0.1,0.55 -0.04,0.26 0.15,0.66 0.43,0.78 0,0 0.83,0.49 2.65,0.99 0.63,0.17 1.99,0.33 2.49,0.33 0.05,0 0.33,0 0.58,-0.05 0.17,-0.03 0.43,-0.34 0.58,-0.94 0.12,-0.38 0.1,-0.76 0.07,-1.01z"/>
   <path class="fil1" d="M9.51 25.34c-1.33,-0.34 -2.16,-0.5 -2.82,-0.83 -0.53,-0.27 -0.42,-0.75 -0.42,-0.75 0,0 -0.06,0.33 -0.1,0.55 -0.03,0.26 0.15,0.66 0.44,0.78 0,0 0.82,0.49 2.65,0.99 0.63,0.17 1.99,0.33 2.49,0.33 0.05,0 0.82,-0.03 0.58,-0.05 -0.67,-0.03 -0.67,-0.69 -0.67,-0.69 0,0 -1.17,-0.09 -2.15,-0.33z"/>
   <ellipse class="fil1" transform="matrix(0.151552 -0.715557 0.715557 0.151552 12.4114 25.2558)" rx="1.36" ry="0.68"/>
   <path class="fil4" d="M15.79 23.94l-0.41 -1.82 -2.97 2.75c0,0 -0.33,0.38 -0.17,0.75 0.15,0.31 0.52,0.16 0.52,0.16l3.03 -1.84z"/>
   <path class="fil5" d="M15.63 23.94l-0.3 -0.76 -3.07 1.69c0,0 -0.33,0.38 -0.17,0.75 0.15,0.31 0.52,0.16 0.52,0.16l3.02 -1.84z"/>
   <path class="fil4" d="M15.56 22.85c0,-0.86 0.12,-1.41 -0.17,-1.41 -0.28,0 -0.83,0.55 -0.83,1.41 0,0.86 0.22,1.57 0.5,1.57 0.28,0 0.5,-0.71 0.5,-1.57z"/>
   <g>
    <path class="fil3" d="M15.97 20.94c-0.41,0 -0.91,0.83 -0.91,2.16 0,1.32 0.58,1.99 1,1.99l-0.09 -4.15zm0 0l0 0 0 0z"/>
   </g>
  </g>
  <path class="fil0" d="M39.79 22.27c-0.42,0.41 -0.29,1.01 -0.17,1.33 0.08,0.23 0.33,0.66 0.66,0.82 0.62,0.3 1.73,-0.03 1.99,-0.16 0.37,-0.18 0.55,-0.33 0.67,-0.5 0.49,-0.66 0.61,-1.06 0.33,-1.16 -0.28,-0.1 -0.72,0.58 -1,0.66 -0.3,0.09 -0.89,0.2 -1.16,-0.33 -0.16,-0.33 -0.11,-0.46 0,-0.5 0.12,-0.03 0.38,0.05 0.5,0 0.17,-0.06 0.43,-0.39 0.17,-0.66 -0.17,-0.16 -0.75,-0.05 -1,0 -0.26,0.05 -0.83,0.33 -0.99,0.5z"/>
  <path class="fil1" d="M40.28 24.42c0.62,0.3 1.73,-0.03 1.99,-0.16 0.37,-0.18 0.55,-0.33 0.67,-0.5 0.49,-0.66 0.41,-0.75 0.41,-0.75 0,0 -0.46,1 -1.49,1.17 -0.52,0.08 -1.01,0.14 -1.33,0.16 -0.3,0.02 -0.41,0 -0.25,0.08z"/>
  <ellipse class="fil1" transform="matrix(0.671232 -0.290523 0.290523 0.671232 39.9154 23.5833)" rx="0.48" ry="1.04"/>
  <path class="fil2" d="M39.04 23.18l0.5 -0.17c0,0 0.25,0.09 0.41,0.42 0.18,0.38 0.08,0.75 0.08,0.75l-0.66 0.16 -0.33 -1.16z"/>
  <path class="fil3" d="M32.77 24.41c0.02,-0.2 0.17,-0.32 0.33,-0.43 0.57,-0.38 1.56,-0.8 2.56,-1.05 1.32,-0.33 2.32,-0.33 2.98,-0.33 0.23,0 0.42,0.13 0.53,0.35 0.1,0.2 0.22,0.5 0.3,0.81 0.03,0.12 0.07,0.33 0.1,0.55 0.03,0.26 -0.15,0.66 -0.43,0.78 0,0 -0.83,0.49 -2.65,0.99 -0.63,0.17 -1.99,0.33 -2.49,0.33 -0.05,0 -0.33,0 -0.58,-0.05 -0.17,-0.03 -0.43,-0.34 -0.58,-0.94 -0.12,-0.38 -0.1,-0.76 -0.07,-1.01z"/>
  <path class="fil1" d="M36.22 25.34c1.33,-0.34 2.16,-0.5 2.82,-0.83 0.53,-0.27 0.41,-0.75 0.41,-0.75 0,0 0.07,0.33 0.1,0.55 0.04,0.26 -0.15,0.66 -0.43,0.78 0,0 -0.83,0.49 -2.65,0.99 -0.63,0.17 -1.99,0.33 -2.49,0.33 -0.05,0 -0.83,-0.03 -0.58,-0.05 0.66,-0.03 0.66,-0.69 0.66,-0.69 0,0 1.18,-0.09 2.16,-0.33z"/>
  <ellipse class="fil1" transform="matrix(0.715557 -0.151552 0.151552 0.715557 33.3185 25.2537)" rx="0.68" ry="1.36"/>
  <path class="fil4" d="M30.35 22.1l2.97 2.76c0,0 0.33,0.38 0.16,0.74 -0.14,0.32 -0.51,0.17 -0.51,0.17l-3.02 -1.83 0.4 -1.84z"/>
  <path class="fil5" d="M30.42 23.18l3.06 1.69c0,0 0.34,0.38 0.17,0.75 -0.15,0.31 -0.51,0.16 -0.51,0.16l-3.02 -1.82 0.3 -0.78z"/>
  <path class="fil4" d="M31.16 22.85c0,0.86 -0.21,1.57 -0.49,1.57 -0.29,0 -0.5,-0.71 -0.5,-1.57 0,-0.86 -0.12,-1.41 0.16,-1.41 0.29,0 0.83,0.55 0.83,1.41z"/>
  <path class="fil3" d="M30.67 23.1c0,1.32 -0.58,1.99 -1,1.99 -0.41,0 -0.66,-0.42 -0.66,-1.74 0,-1.33 0.33,-2.41 0.74,-2.41 0.42,0 0.92,0.83 0.92,2.16z"/>
  <g>
   <g id="_636784288">
    <g>
     <path class="fil6" d="M22.86 20.05c0,0 -2.77,-0.33 -4.4,-0.12 -1.31,0.18 -2.09,0.37 -2.45,0.91 -0.68,1.03 -0.35,3.92 0.03,5.09 0.35,1.08 2.27,3.95 2.27,3.95l4.71 -0.17 -0.16 -9.66zm0 0l0 0 0 0z"/>
    </g>
   </g>
   <g>
    <g>
     <path class="fil6" d="M22.86 20.05c0,0 2.75,-0.33 4.37,-0.12 1.31,0.18 2.09,0.37 2.46,0.91 0.68,1.03 0.35,3.92 -0.04,5.09 -0.34,1.08 -2.27,3.95 -2.27,3.95l-4.52 -0.08 0 -9.75zm0 0l0 0 0 0z"/>
    </g>
   </g>
  </g>
  <g>
   <g>
    <g>
     <g id="_636780512">
      <g>
       <path class="fil7" d="M22.77 28.49c0,0 -2.97,0.08 -5.14,-1.66 -0.83,-0.66 -1.82,-2.49 -1.82,-2.49 0,0 -0.12,0.43 0.26,1.61 0.35,1.08 2.28,3.95 2.28,3.95l4.52 -0.09 -0.1 -1.32zm0 0l0 0 0 0z"/>
      </g>
     </g>
    </g>
    <g>
     <g>
      <g>
       <path class="fil5" d="M22.77 28.49c0,0 -2.97,0.08 -5.14,-1.66 -0.83,-0.66 -1.82,-2.49 -1.82,-2.49 0,0 -0.12,0.43 0.26,1.61 0.35,1.08 2.28,3.95 2.28,3.95l4.52 -0.09 -0.1 -1.32zm0 0l0 0 0 0z"/>
      </g>
     </g>
    </g>
   </g>
   <g>
    <g>
     <g>
      <g>
       <path class="fil7" d="M22.96 28.49c0,0 2.96,0.08 5.14,-1.66 0.82,-0.66 1.82,-2.49 1.82,-2.49 0,0 0.12,0.43 -0.27,1.61 -0.34,1.08 -2.27,3.95 -2.27,3.95l-4.52 -0.09 0.1 -1.32zm0 0l0 0 0 0z"/>
      </g>
     </g>
    </g>
    <g>
     <g>
      <g>
       <path class="fil5" d="M22.96 28.49c0,0 2.96,0.08 5.14,-1.66 0.82,-0.66 1.82,-2.49 1.82,-2.49 0,0 0.12,0.43 -0.27,1.61 -0.34,1.08 -2.27,3.95 -2.27,3.95l-4.52 -0.09 0.1 -1.32zm0 0l0 0 0 0z"/>
      </g>
     </g>
    </g>
   </g>
  </g>
  <g>
   <g>
    <g>
     <path class="fil5" d="M22.86 20.15l-3.39 -0.3c0,0 0.83,4.82 2.49,4.47 1.66,-0.34 0.81,-0.43 0.81,-0.43l0.09 -3.74zm0 0l0 0 0 0z"/>
    </g>
   </g>
   <g>
    <g>
     <path class="fil5" d="M22.72 20.15l3.39 -0.3c0,0 -0.83,4.82 -2.49,4.47 -1.66,-0.34 -0.81,-0.43 -0.81,-0.43l-0.09 -3.74zm0 0l0 0 0 0z"/>
    </g>
   </g>
  </g>
  <g>
   <g>
    <g>
     <path class="fil8" d="M22.82 19.91l-3.02 -0.05c0,0 0.77,3.59 2.23,3.3 1.46,-0.28 0.71,-0.33 0.71,-0.33l0.08 -2.92zm0 0l0 0 0 0z"/>
    </g>
   </g>
   <g>
    <g>
     <path class="fil8" d="M22.71 19.91l3.06 -0.05c0,0 -0.81,3.59 -2.27,3.3 -1.46,-0.28 -0.71,-0.33 -0.71,-0.33l-0.08 -2.92zm0 0l0 0 0 0z"/>
    </g>
   </g>
  </g>
  <path class="fil8 str0" d="M23.44 21.41l-1.41 0c-0.73,0 -1.33,-0.6 -1.33,-1.33l0 -0.8c0,-0.73 0.6,-1.32 1.33,-1.32l1.41 0c0.73,0 1.32,0.59 1.32,1.32l0 0.8c0.02,0.73 -0.58,1.33 -1.32,1.33z"/>
  <g>
   <g>
    <g>
     <path class="fil6" d="M22.71 9c0,0 -4.8,-0.18 -5.14,5.48 -0.34,5.47 5.14,5.14 5.14,5.14l0 -10.62zm0 0l0 0 0 0z"/>
    </g>
   </g>
   <g>
    <g>
     <path class="fil6" d="M22.71 9c0,0 4.79,-0.18 5.14,5.48 0.33,5.47 -5.14,5.14 -5.14,5.14l0 -10.62zm0 0l0 0 0 0z"/>
    </g>
   </g>
  </g>
  <g>
   <g>
    <g>
     <path class="fil5" d="M22.71 12.98c0,0 -1.83,0 -3.15,-0.49 -1.13,-0.44 -1.99,-0.1 -1.99,1.99 0,5.48 5.14,5.14 5.14,5.14l0 -6.64zm0 0l0 0 0 0z"/>
    </g>
   </g>
   <g>
    <g>
     <path class="fil5" d="M22.71 12.98c0,0 1.82,0 3.15,-0.49 1.12,-0.44 1.99,-0.1 1.99,1.99 0,5.48 -5.14,5.14 -5.14,5.14l0 -6.64zm0 0l0 0 0 0z"/>
    </g>
   </g>
  </g>
  <g>
   <g>
    <g>
     <path class="fil8" d="M22.71 13.98c0,0 -1.2,-0.05 -2.16,-0.33 -1.16,-0.34 -1.54,-0.6 -1.82,-0.5 -0.15,0.05 -0.33,0.31 -0.33,0.99 0,0.67 0.33,1.83 0.99,2.49 1.33,1.33 2.65,1.33 3.32,1.33l0 -3.98zm0 0l0 0 0 0z"/>
    </g>
   </g>
   <g>
    <g>
     <path class="fil8" d="M22.54 13.98c0,0 1.36,-0.05 2.32,-0.33 1.16,-0.34 1.54,-0.6 1.83,-0.5 0.15,0.05 0.33,0.31 0.33,0.99 0,0.67 -0.33,1.83 -1,2.49 -1.32,1.33 -2.65,1.33 -3.31,1.33l-0.17 -3.98zm0 0l0 0 0 0z"/>
    </g>
   </g>
  </g>
  <path class="fil9" d="M26.44 16.22c0,0 -1.74,0.74 -3.9,0.74 -2.16,0 -3.56,-0.74 -3.56,-0.74l-0.34 -0.83 -0.16 -1 -0.02 -0.63c0,0 1.1,1.05 4.08,1.05 3.15,0 4.39,-1.08 4.39,-1.08 0,0 0.04,0.3 0,0.66 -0.03,0.38 -0.11,0.83 -0.16,1 -0.1,0.31 -0.33,0.83 -0.33,0.83z"/>
  <g>
   <g>
    <path class="fil10 str1" d="M22.71 13.98c0,0 -1.2,-0.05 -2.16,-0.33 -1.16,-0.34 -1.54,-0.6 -1.82,-0.5 -0.15,0.05 -0.33,0.31 -0.33,0.99 0,0.67 0.33,1.83 0.99,2.49 1.33,1.33 2.65,1.33 3.32,1.33"/>
   </g>
   <g>
    <path class="fil10 str1" d="M22.54 13.98c0,0 1.36,-0.05 2.32,-0.33 1.16,-0.34 1.54,-0.6 1.83,-0.5 0.15,0.05 0.33,0.31 0.33,0.99 0,0.67 -0.33,1.83 -1,2.49 -1.32,1.33 -2.65,1.33 -3.31,1.33"/>
   </g>
  </g>
  <g>
   <g>
    <path class="fil6" d="M21.93 15.67c0,0 -0.58,-0.08 -0.96,-0.2 -0.47,-0.15 -0.97,-0.4 -0.97,-0.4l0 0.52c0,0 0.42,0.2 0.97,0.29 0.54,0.1 0.96,0.1 0.96,0.1l0 -0.31z"/>
   </g>
   <g>
    <path class="fil6" d="M23.42 15.67c0,0 0.58,-0.08 0.96,-0.2 0.47,-0.15 0.96,-0.4 0.96,-0.4l0 0.52c0,0 -0.41,0.2 -0.96,0.29 -0.55,0.1 -0.96,0.1 -0.96,0.1l0 -0.31z"/>
   </g>
  </g>
  <line class="fil10 str2" x1="22.71" y1="12.57" x2="22.74" y2= "10.46" />
  <path class="fil11" d="M23.17 10.25l-0.93 0c-0.35,0 -0.61,-0.27 -0.61,-0.58l0 0c0,-0.32 0.08,-0.58 0.08,-0.58 0,0 0.33,-0.15 1,-0.15 0.83,0 0.99,0.15 0.99,0.15 0,0 0.08,0.26 0.08,0.58l0 0c0,0.31 -0.28,0.58 -0.61,0.58z"/>
  <g id="Слой_5">
   <rect class="fil12" x="10.85" y="28.98" width="23.88" height="1.16"/>
  </g>
  <g id="Слой_6">
   <rect class="fil12" x="12.01" y="30.14" width="21.39" height="3.98"/>
  </g>
  <g id="Слой_8">
   <path class="fil13" d="M12.01 30.14l0 0 0 3.98c0,0 19.78,-4.14 19.85,-3.98 0.05,0.17 -19.85,0 -19.85,0z"/>
  </g>
  <g id="Слой_9">
   <polygon class="fil14" points="28.26,28.16 17.48,28.16 16.82,21.85 28.76,21.85 "/>
   <rect class="fil14" x="17.48" y="28.49" width="10.78" height="0.5"/>
  </g>
  <g id="Слой_10">
   <circle class="fil15" cx="22.71" cy="24.76" r="0.58"/>
  </g>
  <g id="Слой_11">
   <rect class="fil15" x="16.82" y="21.69" width="11.94" height="0.33"/>
  </g>
  <g>
   <path class="fil16" d="M19.64 16.88l3.15 -2.82c0,0 -1.16,0 -2.49,-0.5 -0.73,-0.26 -1.46,-0.46 -1.57,-0.41 -0.15,0.05 -0.33,0.31 -0.33,0.99 0,0.67 0.33,1.83 0.99,2.49m0.25 0.25l0 0 0 0z"/>
  </g>
  <path class="fil10 str3" d="M3.34 18.5c0.53,-8.85 9.05,-15.88 19.48,-15.88 10.43,0 18.96,7.03 19.5,15.88"/>
  <circle class="fil17 str4" transform="matrix(0.359936 -0.636709 0.636709 0.359936 43.3158 19.0701)" r="3.24"/>
  <circle class="fil17 str4" transform="matrix(0.359936 -0.636709 0.636709 0.359936 40.5328 12.5534)" r="3.24"/>
  <circle class="fil17 str4" transform="matrix(0.359936 -0.636709 0.636709 0.359936 36.0503 7.22319)" r="3.24"/>
  <circle class="fil17 str4" transform="matrix(0.359936 -0.636709 0.636709 0.359936 30.1548 3.64056)" r="3.24"/>
  <circle class="fil17 str4" transform="matrix(0.359936 -0.636709 0.636709 0.359936 23.1107 2.48458)" r="3.24"/>
  <circle class="fil17 str4" transform="matrix(0.359936 -0.636709 0.636709 0.359936 16.2417 3.61038)" r="3.24"/>
  <circle class="fil17 str4" transform="matrix(0.359936 -0.636709 0.636709 0.359936 10.1539 7.02135)" r="3.24"/>
  <circle class="fil17 str4" transform="matrix(0.359936 -0.636709 0.636709 0.359936 5.49433 12.2674)" r="3.24"/>
  <circle class="fil17 str4" transform="matrix(0.359936 -0.636709 0.636709 0.359936 2.48451 19.0157)" r="3.24"/>
  <g id="Слой_x0020_1_0">
   <path class="fil5" d="M36.05 5.74c-0.82,0 -1.49,0.66 -1.49,1.49 0,0.83 0.67,1.49 1.49,1.49 0.83,0 1.5,-0.66 1.5,-1.49 0,-0.83 -0.68,-1.49 -1.5,-1.49l0 0zm0.49 2.15c-0.02,0.02 -0.05,0.05 -0.07,0.07 -0.02,0.02 -0.03,0.03 -0.03,0.06 -0.02,0.04 -0.02,0.07 -0.04,0.1l-0.1 0.29c-0.08,0.01 -0.16,0.03 -0.25,0.03l0 -0.17c0.02,-0.08 -0.05,-0.21 -0.13,-0.31 -0.03,-0.03 -0.05,-0.08 -0.05,-0.13l0 -0.2c0,-0.07 -0.03,-0.14 -0.1,-0.17 -0.08,-0.05 -0.21,-0.11 -0.3,-0.15 -0.06,-0.03 -0.13,-0.08 -0.18,-0.13l0 0c-0.03,-0.03 -0.08,-0.08 -0.11,-0.13 -0.05,-0.09 -0.15,-0.22 -0.22,-0.32 0.12,-0.28 0.35,-0.5 0.61,-0.61l0.15 0.06c0.07,0.04 0.14,-0.01 0.14,-0.08l0 -0.06c0.05,0 0.1,-0.02 0.14,-0.02l0.17 0.16c0.03,0.04 0.03,0.1 0,0.14l-0.03 0.03 -0.07 0.07c-0.02,0.01 -0.02,0.05 0,0.06l0.03 0.04c0.02,0.01 0.02,0.05 0,0.06l-0.05 0.05c-0.01,0.02 -0.01,0.02 -0.03,0.02 0,0 0,0 0,0l-0.05 0c-0.01,0 -0.01,0 -0.03,0.02l-0.07 0.06c-0.01,0.02 -0.01,0.02 -0.01,0.03 0,0 0,0.02 0,0.02l0.1 0.18c0.01,0.04 0,0.07 -0.05,0.07l-0.04 0c-0.01,0 -0.01,0 -0.03,-0.02l-0.05 -0.05c-0.02,-0.01 -0.03,-0.01 -0.07,-0.01 -0.01,0 -0.01,0 -0.03,0l-0.18 0.06c-0.04,0.02 -0.05,0.04 -0.05,0.07l0 0c0,0.03 0.01,0.05 0.03,0.07l0.07 0.03c0.05,0.03 0.11,0.05 0.18,0.05 0.07,0 0.13,0.16 0.2,0.2l0.4 0c0.05,0 0.1,0.01 0.13,0.05l0.08 0.08c0,0.07 -0.03,0.15 -0.08,0.2l0.07 0.13 0 0zm0.53 -0.54c-0.04,-0.02 -0.07,-0.04 -0.09,-0.07l-0.11 -0.17c-0.02,-0.01 -0.02,-0.05 -0.02,-0.08 0,-0.03 0.02,-0.05 0.02,-0.08l0.11 -0.19c0.02,-0.01 0.04,-0.03 0.05,-0.05l0.09 -0.03c0.08,0.17 0.13,0.35 0.13,0.53 0,0.05 0,0.1 -0.02,0.15l-0.16 -0.01 0 0z"/>
  </g>
  <g id="Слой_x0020_1_1_">
   <path class="fil5" d="M44 17.51l-1.36 0c-0.17,0 -0.3,0.13 -0.3,0.3l0 2.54c0,0.16 0.13,0.29 0.3,0.29l1.36 0c0.16,0 0.3,-0.13 0.3,-0.29l0 -2.54c0,-0.17 -0.14,-0.3 -0.3,-0.3l0 0zm-0.68 2.92c-0.1,0 -0.2,-0.08 -0.2,-0.2 0,-0.12 0.08,-0.2 0.2,-0.2 0.1,0 0.2,0.08 0.2,0.2 0,0.12 -0.1,0.2 -0.2,0.2zm0.68 -0.65c0,0.03 -0.04,0.07 -0.07,0.07l-1.21 0c-0.03,0 -0.07,-0.04 -0.07,-0.07l0 -1.91c0,-0.03 0.04,-0.06 0.07,-0.06l1.21 0c0.03,0 0.07,0.03 0.07,0.06l0 1.91 0 0z"/>
  </g>
  <g id="Слой_x0020_1_2_">
   <path class="fil5" d="M3.82 19.55c0.15,-0.13 0.23,-0.32 0.23,-0.51 0,-0.42 -0.4,-0.77 -0.91,-0.82 -0.17,-0.3 -0.55,-0.51 -0.99,-0.51 -0.6,0 -1.08,0.36 -1.08,0.83 0,0.2 0.08,0.36 0.23,0.51 -0.08,0.17 -0.2,0.28 -0.2,0.28 -0.03,0.04 -0.05,0.09 -0.02,0.14 0.02,0.05 0.07,0.06 0.12,0.06 0.28,0 0.5,-0.1 0.65,-0.2 0.05,0.02 0.1,0.02 0.15,0.04 0.16,0.3 0.54,0.51 0.99,0.51 0.1,0 0.22,-0.02 0.32,-0.03 0.15,0.1 0.36,0.2 0.64,0.2 0.05,0 0.09,-0.04 0.12,-0.07 0.02,-0.05 0.02,-0.1 -0.02,-0.13 -0.03,-0.02 -0.15,-0.15 -0.23,-0.3l0 0 0 0zm-2.02 -0.48l-0.09 0.05c-0.06,0.05 -0.15,0.08 -0.21,0.11 0.01,-0.01 0.03,-0.05 0.03,-0.08l0.08 -0.16 -0.13 -0.14c-0.06,-0.06 -0.15,-0.18 -0.15,-0.33 0,-0.31 0.38,-0.58 0.83,-0.58 0.45,0 0.83,0.27 0.83,0.58 0,0.32 -0.38,0.58 -0.83,0.58 -0.08,0 -0.16,-0.02 -0.25,-0.03l-0.11 0 0 0 0 0zm1.85 0.3l-0.13 0.13 0.08 0.17c0.02,0.03 0.04,0.05 0.05,0.08 -0.08,-0.03 -0.15,-0.07 -0.21,-0.12l-0.08 -0.05 -0.1 0.02c-0.09,0.02 -0.17,0.03 -0.25,0.03 -0.28,0 -0.53,-0.1 -0.68,-0.26 0.53,-0.05 0.93,-0.4 0.93,-0.82 0,-0.01 0,-0.03 0,-0.05 0.33,0.09 0.58,0.3 0.58,0.55 -0.04,0.13 -0.12,0.25 -0.19,0.32l0 0z"/>
  </g>
  <g id="Слой_x0020_1_3_">
   <path class="fil5" d="M10.09 8.37c-0.77,-1.09 -0.9,-1.21 -0.9,-1.61 0,-0.54 0.45,-0.99 1,-0.99 0.54,0 0.99,0.45 0.99,0.99 0,0.4 -0.13,0.52 -0.89,1.61 -0.05,0.09 -0.15,0.09 -0.2,0l0 0zm0.1 -1.19c0.23,0 0.41,-0.18 0.41,-0.42 0,-0.23 -0.18,-0.41 -0.41,-0.41 -0.23,0 -0.42,0.18 -0.42,0.41 0,0.24 0.19,0.42 0.42,0.42z"/>
  </g>
  <g id="Слой_x0020_1_4_">
   <path class="fil5" d="M39.29 12.29c0.73,-0.72 1.9,-0.72 2.63,0 0.05,0.05 0.15,0.05 0.2,0 0.05,-0.05 0.05,-0.15 0,-0.2 -0.84,-0.83 -2.2,-0.83 -3.03,0 -0.05,0.05 -0.05,0.15 0,0.2 0.05,0.05 0.13,0.05 0.2,0zm0.4 0.39c0.49,-0.49 1.32,-0.49 1.82,0 0.05,0.05 0.15,0.05 0.2,0 0.05,-0.05 0.05,-0.14 0,-0.19 -0.61,-0.62 -1.61,-0.62 -2.22,0 -0.05,0.05 -0.05,0.14 0,0.19 0.05,0.07 0.15,0.07 0.2,0zm0.41 0.42c0.28,-0.28 0.73,-0.28 1.01,0 0.05,0.05 0.15,0.05 0.2,0 0.05,-0.05 0.05,-0.15 0,-0.2 -0.4,-0.38 -1.03,-0.38 -1.41,0 -0.05,0.05 -0.05,0.15 0,0.2 0.05,0.05 0.13,0.05 0.2,0zm0.2 0.2c0.17,-0.17 0.45,-0.17 0.61,0 0.05,0.05 0.05,0.15 0,0.2l-0.2 0.2c-0.05,0.05 -0.15,0.05 -0.19,0l-0.2 -0.2c-0.09,-0.07 -0.09,-0.15 -0.02,-0.2z"/>
  </g>
  <g id="Слой_x0020_1_5_">
   <path class="fil5" d="M17.52 3.95l-0.24 -0.14c0.02,-0.13 0.02,-0.26 0,-0.38l0.24 -0.13c0.03,-0.02 0.03,-0.05 0.03,-0.08 -0.07,-0.2 -0.17,-0.39 -0.3,-0.52 -0.02,-0.01 -0.05,-0.03 -0.08,-0.01l-0.23 0.13c-0.1,-0.08 -0.22,-0.15 -0.34,-0.2l0 -0.27c0,-0.03 -0.01,-0.05 -0.05,-0.06 -0.19,-0.05 -0.41,-0.05 -0.59,0 -0.04,0 -0.05,0.03 -0.05,0.06l0 0.27c-0.12,0.05 -0.23,0.12 -0.33,0.2l-0.24 -0.13c-0.03,-0.02 -0.06,-0.02 -0.08,0.01 -0.13,0.15 -0.23,0.33 -0.3,0.52 -0.01,0.03 0,0.06 0.04,0.08l0.23 0.13c-0.02,0.13 -0.02,0.27 0,0.38l-0.23 0.14c-0.04,0.01 -0.04,0.05 -0.04,0.08 0.07,0.2 0.17,0.38 0.3,0.51 0.02,0.02 0.05,0.04 0.08,0.02l0.24 -0.13c0.1,0.08 0.21,0.15 0.33,0.2l0 0.26c0,0.03 0.01,0.05 0.05,0.07 0.2,0.05 0.41,0.05 0.59,0 0.04,0 0.05,-0.04 0.05,-0.07l0 -0.28c0.12,-0.05 0.24,-0.12 0.34,-0.2l0.23 0.13c0.03,0.02 0.06,0.02 0.08,-0.01 0.13,-0.15 0.23,-0.34 0.3,-0.52 0,-0.03 -0.02,-0.06 -0.03,-0.06l0 0 0 0zm-1.28 0.1c-0.25,0 -0.45,-0.2 -0.45,-0.45 0,-0.25 0.2,-0.45 0.45,-0.45 0.25,0 0.45,0.2 0.45,0.45 -0.02,0.25 -0.22,0.45 -0.45,0.45z"/>
  </g>
  <g id="_2349102592816">
   <path class="fil5" d="M31.13 3.35c0,-0.02 0,-0.02 0,-0.03 0,-0.2 -0.17,-0.39 -0.38,-0.39 -0.07,0 -0.15,0.02 -0.2,0.07 -0.1,-0.23 -0.33,-0.38 -0.6,-0.38 -0.36,0 -0.64,0.3 -0.64,0.65 0,0.01 0,0.03 0,0.05 -0.29,0.01 -0.52,0.26 -0.52,0.56 0,0.31 0.25,0.56 0.57,0.56l1.59 0c0.31,0 0.56,-0.25 0.56,-0.56 -0.02,-0.25 -0.16,-0.45 -0.38,-0.53z"/>
  </g>
  <g id="Слой_x0020_1_6_">
   <path class="fil5" d="M6.57 11.27l-2.15 0c-0.14,0 -0.25,0.12 -0.25,0.25l0 1.5c0,0.13 0.11,0.24 0.25,0.24l2.15 0c0.14,0 0.25,-0.11 0.25,-0.24l0 -1.5c0,-0.13 -0.11,-0.25 -0.25,-0.25zm0 0.25l0 0.22c-0.11,0.1 -0.3,0.25 -0.69,0.55 -0.09,0.06 -0.27,0.23 -0.39,0.23 -0.11,0 -0.29,-0.17 -0.38,-0.23 -0.39,-0.32 -0.58,-0.47 -0.69,-0.55l0 -0.22 2.15 0zm-2.15 1.5l0 -0.97c0.11,0.1 0.28,0.24 0.54,0.44 0.12,0.08 0.32,0.28 0.53,0.28 0.22,0 0.42,-0.2 0.54,-0.28 0.24,-0.2 0.43,-0.34 0.54,-0.44l0 0.97 -2.15 0 0 0z"/>
  </g>
  <g>
   <g>
    <path class="fil18" d="M11.38 37.16l0 3.66c0,0.17 0.05,0.27 0.15,0.27 0.13,0 0.17,-0.08 0.17,-0.27l0 -3.66 1.16 0 0 3.51c0,1.02 -0.47,1.28 -1.35,1.28 -0.91,0 -1.27,-0.36 -1.27,-1.31l0 -3.5 1.14 0 0 0.02z"/>
    <polygon class="fil18" points="14.15,38.09 13.59,38.09 13.59,37.16 15.84,37.16 15.84,38.09 15.28,38.09 15.28,41.9 14.15,41.9 "/>
    <path class="fil18" d="M19.19 38.4l0 2.27c0,0.97 -0.53,1.31 -1.36,1.31 -0.79,0 -1.28,-0.38 -1.28,-1.31l0 -2.32c0,-0.88 0.55,-1.26 1.3,-1.26 0.74,0 1.34,0.38 1.34,1.31zm-1.49 -0.13l0 2.54c0,0.18 0.05,0.28 0.16,0.28 0.1,0 0.17,-0.1 0.17,-0.28l0 -2.56c0,-0.21 -0.05,-0.28 -0.18,-0.28 -0.08,0 -0.15,0.08 -0.15,0.3z"/>
    <path class="fil18" d="M20.05 37.16l1.43 0c0.83,0 1.21,0.5 1.21,1.29l0 0.32c0,0.88 -0.35,1.36 -1.23,1.36l-0.26 0 0 1.79 -1.13 0 0 -4.76 -0.02 0zm1.13 2.06l0.1 0c0.18,0 0.25,-0.1 0.25,-0.39l0 -0.51c0,-0.25 -0.1,-0.32 -0.25,-0.32l-0.08 0 0 1.22 -0.02 0z"/>
    <path class="fil18" d="M26.09 38.4l0 2.27c0,0.97 -0.53,1.31 -1.36,1.31 -0.8,0 -1.28,-0.38 -1.28,-1.31l0 -2.32c0,-0.88 0.55,-1.26 1.3,-1.26 0.74,0 1.34,0.38 1.34,1.31zm-1.49 -0.13l0 2.54c0,0.18 0.05,0.28 0.16,0.28 0.1,0 0.17,-0.1 0.17,-0.28l0 -2.56c0,-0.21 -0.05,-0.28 -0.18,-0.28 -0.09,0 -0.15,0.08 -0.15,0.3z"/>
    <path class="fil18" d="M27.98 40.36l0 0.38c0,0.28 0.05,0.35 0.15,0.35 0.1,0 0.13,-0.1 0.13,-0.28 0,-0.35 -0.05,-0.47 -0.48,-0.87 -0.58,-0.54 -0.85,-0.81 -0.85,-1.5 0,-0.77 0.29,-1.35 1.22,-1.35 1.01,0 1.19,0.62 1.19,1.26l0 0.3 -1 0 0 -0.38c0,-0.25 -0.05,-0.3 -0.15,-0.3 -0.08,0 -0.13,0.07 -0.13,0.28 0,0.25 0.05,0.35 0.4,0.67 0.65,0.58 0.96,0.88 0.96,1.62 0,0.86 -0.26,1.43 -1.27,1.43 -0.9,0 -1.25,-0.5 -1.25,-1.35l0 -0.28 1.08 0 0 0.02z"/>
    <polygon class="fil18" points="30.65,38.09 30.09,38.09 30.09,37.16 32.34,37.16 32.34,38.09 31.78,38.09 31.78,41.9 30.65,41.9 "/>
    <polygon class="fil18" points="35.08,39.88 34.21,39.88 34.21,40.97 35.26,40.97 35.13,41.9 33.07,41.9 33.07,37.16 35.11,37.16 35.11,38.09 34.2,38.09 34.2,38.93 35.06,38.93 35.06,39.88 "/>
   </g>
  </g>
  <g>
   <g>
    <path class="fil18" d="M6.09 40.24l-0.1 1.63 -1.87 0 0.83 -7.73 2.93 0 0.81 7.73 -1.9 0 -0.1 -1.63 -0.6 0zm0.53 -1.52c-0.03,-0.6 -0.18,-2.62 -0.21,-3.04l-0.09 0c-0.01,0.33 -0.13,2.27 -0.16,3.04l0.46 0z"/>
   </g>
  </g>
  <g>
   <g>
    <path class="fil18" d="M38.31 38.88l0 3.27 -1.84 0 0 -7.73 2.29 0c1.51,0 1.99,0.77 1.99,1.99l0 0.28c0,0.88 -0.3,1.31 -0.75,1.55 0.56,0.25 0.71,0.68 0.71,1.8 0,0.93 -0.01,1.81 0.02,2.11l-1.79 0c-0.08,-0.13 -0.1,-0.68 -0.1,-2.44 0,-0.76 -0.07,-0.83 -0.45,-0.83l-0.08 0zm0.02 -1.37l0.13 0c0.3,0 0.43,-0.1 0.43,-0.6l0 -0.61c0,-0.43 -0.1,-0.53 -0.46,-0.53l-0.1 0 0 1.74z"/>
   </g>
  </g>
  <g id="Слой_x0020_1_7_">
   <path class="fil5" d="M22.64 1.01c-0.17,0 -0.32,0.12 -0.35,0.28 0,0 0,0 -0.01,0 -0.2,0 -0.37,0.17 -0.37,0.37 0,0.03 0,0.05 0.02,0.08 -0.17,0.07 -0.28,0.23 -0.28,0.43 0,0.07 0.01,0.13 0.04,0.2 -0.13,0.08 -0.23,0.23 -0.23,0.4 0,0.2 0.12,0.35 0.28,0.43 0,0.03 0,0.05 0,0.08 0,0.23 0.19,0.42 0.42,0.42 0.02,0 0.05,0 0.07,0 0.05,0.16 0.21,0.28 0.39,0.28 0.24,0 0.42,-0.18 0.42,-0.42l0 -2.18c-0.04,-0.2 -0.18,-0.37 -0.4,-0.37l0 0 0 0zm2.12 1.74c0,-0.16 -0.1,-0.31 -0.23,-0.4 0.03,-0.06 0.05,-0.13 0.05,-0.2 0,-0.19 -0.12,-0.36 -0.28,-0.43 0,-0.03 0.01,-0.05 0.01,-0.08 0,-0.2 -0.16,-0.36 -0.36,-0.36 0,0 -0.02,0 -0.02,0 -0.03,-0.17 -0.18,-0.29 -0.34,-0.29 -0.2,0 -0.37,0.17 -0.37,0.37l0 2.17c0,0.23 0.18,0.42 0.41,0.42 0.19,0 0.34,-0.12 0.4,-0.29 0.02,0 0.05,0 0.07,0 0.23,0 0.41,-0.18 0.41,-0.41 0,-0.03 0,-0.05 0,-0.08 0.14,-0.05 0.25,-0.22 0.25,-0.42l0 0 0 0z"/>
  </g>
 </g>
</svg>
