<?xml version="1.0" encoding="UTF-8"?>
<!DOCTYPE svg PUBLIC "-//W3C//DTD SVG 1.1//EN" "http://www.w3.org/Graphics/SVG/1.1/DTD/svg11.dtd">
<!-- Creator: CorelDRAW 2017 -->
<svg xmlns="http://www.w3.org/2000/svg" xml:space="preserve" width="280px" height="258px" version="1.1" style="shape-rendering:geometricPrecision; text-rendering:geometricPrecision; image-rendering:optimizeQuality; fill-rule:evenodd; clip-rule:evenodd"
viewBox="0 0 24.31 22.38"
 xmlns:xlink="http://www.w3.org/1999/xlink">
 <defs>
  <style type="text/css">
   <![CDATA[
    .str0 {stroke:#282828;stroke-width:0.12;stroke-miterlimit:22.9256}
    .str2 {stroke:white;stroke-width:0.12;stroke-miterlimit:22.9256}
    .str1 {stroke:white;stroke-width:0.12;stroke-linecap:round;stroke-miterlimit:22.9256;stroke-dasharray:158.330000 158.340000}
    .fil11 {fill:none}
    .fil12 {fill:#111C31}
    .fil1 {fill:#2C262D}
    .fil0 {fill:#38313B}
    .fil7 {fill:#383239}
    .fil3 {fill:#39323A}
    .fil8 {fill:#3A303D}
    .fil10 {fill:#7296B0}
    .fil9 {fill:#99BFDA}
    .fil2 {fill:#E4E4E8}
    .fil5 {fill:#E4E7E2}
    .fil4 {fill:#F6F5F3}
    .fil6 {fill:#F7F7F7}
    .fil13 {fill:white}
   ]]>
  </style>
 </defs>
 <g id="Слой_x0020_1">
  <metadata id="CorelCorpID_0Corel-Layer"/>
  <g id="_640328064">
   <g>
    <path class="fil0" d="M3.15 11.82c0.22,0.22 0.15,0.54 0.09,0.71 -0.04,0.12 -0.17,0.35 -0.35,0.44 -0.33,0.15 -0.92,-0.02 -1.06,-0.09 -0.19,-0.1 -0.29,-0.18 -0.35,-0.27 -0.26,-0.35 -0.32,-0.56 -0.17,-0.61 0.15,-0.06 0.37,0.31 0.52,0.35 0.16,0.04 0.48,0.11 0.62,-0.18 0.09,-0.17 0.06,-0.24 0,-0.26 -0.06,-0.02 -0.2,0.03 -0.26,0 -0.09,-0.04 -0.23,-0.21 -0.09,-0.35 0.09,-0.09 0.39,-0.03 0.53,0 0.15,0.02 0.44,0.17 0.52,0.26z"/>
    <path class="fil1" d="M2.89 12.97c-0.33,0.15 -0.92,-0.02 -1.06,-0.09 -0.19,-0.1 -0.29,-0.18 -0.35,-0.27 -0.26,-0.35 -0.22,-0.39 -0.22,-0.39 0,0 0.25,0.53 0.79,0.61 0.28,0.05 0.54,0.08 0.71,0.09 0.16,0.01 0.22,0 0.13,0.05z"/>
    <ellipse class="fil1" transform="matrix(0.290523 -0.671232 0.671232 0.290523 3.08016 12.5155)" rx="0.55" ry="0.25"/>
    <path class="fil2" d="M3.55 12.31l-0.26 -0.09c0,0 -0.14,0.04 -0.22,0.22 -0.1,0.2 -0.05,0.39 -0.05,0.39l0.35 0.09 0.18 -0.61z"/>
    <path class="fil3" d="M6.88 12.96c-0.01,-0.11 -0.09,-0.17 -0.18,-0.23 -0.3,-0.2 -0.83,-0.42 -1.35,-0.56 -0.71,-0.17 -1.24,-0.17 -1.59,-0.17 -0.12,0 -0.22,0.07 -0.28,0.18 -0.05,0.11 -0.11,0.27 -0.16,0.43 -0.02,0.07 -0.03,0.18 -0.05,0.29 -0.02,0.15 0.08,0.36 0.23,0.42 0,0 0.44,0.26 1.41,0.53 0.33,0.08 1.05,0.17 1.32,0.17 0.02,0 0.17,0 0.3,-0.02 0.09,-0.02 0.23,-0.19 0.31,-0.51 0.06,-0.2 0.06,-0.4 0.04,-0.53z"/>
    <path class="fil1" d="M5.05 13.45c-0.71,-0.18 -1.15,-0.26 -1.5,-0.44 -0.28,-0.14 -0.22,-0.4 -0.22,-0.4 0,0 -0.03,0.18 -0.05,0.29 -0.02,0.15 0.08,0.36 0.23,0.42 0,0 0.44,0.26 1.41,0.53 0.33,0.08 1.05,0.17 1.32,0.17 0.02,0 0.44,-0.02 0.3,-0.02 -0.35,-0.02 -0.35,-0.37 -0.35,-0.37 0,0 -0.62,-0.05 -1.14,-0.18z"/>
    <ellipse class="fil1" transform="matrix(0.151552 -0.715557 0.715557 0.151552 6.58869 13.4073)" rx="0.72" ry="0.36"/>
    <path class="fil4" d="M8.38 12.71l-0.22 -0.97 -1.57 1.46c0,0 -0.18,0.21 -0.09,0.4 0.08,0.17 0.27,0.09 0.27,0.09l1.61 -0.98z"/>
    <path class="fil5" d="M8.3 12.71l-0.16 -0.4 -1.63 0.89c0,0 -0.18,0.21 -0.09,0.4 0.08,0.17 0.27,0.09 0.27,0.09l1.61 -0.98z"/>
    <path class="fil4" d="M8.26 12.13c0,-0.46 0.06,-0.75 -0.09,-0.75 -0.15,0 -0.44,0.29 -0.44,0.75 0,0.46 0.12,0.84 0.27,0.84 0.15,0 0.26,-0.38 0.26,-0.84z"/>
    <g>
     <path class="fil3" d="M8.48 11.12c-0.22,0 -0.48,0.44 -0.48,1.14 0,0.71 0.3,1.06 0.52,1.06l-0.04 -2.2zm0 0l0 0 0 0z"/>
    </g>
   </g>
   <path class="fil0" d="M21.12 11.82c-0.22,0.22 -0.15,0.54 -0.09,0.71 0.05,0.12 0.18,0.35 0.35,0.44 0.33,0.15 0.92,-0.02 1.06,-0.09 0.19,-0.1 0.29,-0.18 0.35,-0.27 0.27,-0.35 0.33,-0.56 0.18,-0.61 -0.15,-0.06 -0.38,0.31 -0.53,0.35 -0.16,0.04 -0.47,0.11 -0.62,-0.18 -0.08,-0.17 -0.06,-0.24 0,-0.26 0.07,-0.02 0.21,0.03 0.27,0 0.09,-0.04 0.23,-0.21 0.09,-0.35 -0.09,-0.09 -0.4,-0.03 -0.53,0 -0.14,0.02 -0.44,0.17 -0.53,0.26z"/>
   <path class="fil1" d="M21.38 12.97c0.33,0.15 0.92,-0.02 1.06,-0.09 0.19,-0.1 0.29,-0.18 0.35,-0.27 0.27,-0.35 0.22,-0.39 0.22,-0.39 0,0 -0.24,0.53 -0.79,0.61 -0.27,0.05 -0.54,0.08 -0.7,0.09 -0.16,0.01 -0.22,0 -0.14,0.05z"/>
   <ellipse class="fil1" transform="matrix(0.671232 -0.290523 0.290523 0.671232 21.1895 12.5194)" rx="0.25" ry="0.55"/>
   <path class="fil2" d="M20.72 12.31l0.27 -0.09c0,0 0.13,0.04 0.22,0.22 0.1,0.2 0.04,0.39 0.04,0.39l-0.35 0.09 -0.18 -0.61z"/>
   <path class="fil3" d="M17.4 12.96c0.01,-0.11 0.09,-0.17 0.17,-0.23 0.3,-0.2 0.83,-0.42 1.36,-0.56 0.7,-0.17 1.23,-0.17 1.58,-0.17 0.13,0 0.22,0.07 0.28,0.18 0.06,0.11 0.12,0.27 0.16,0.43 0.02,0.07 0.04,0.18 0.06,0.29 0.01,0.15 -0.08,0.36 -0.23,0.42 0,0 -0.44,0.26 -1.41,0.53 -0.34,0.08 -1.06,0.17 -1.32,0.17 -0.03,0 -0.18,0 -0.31,-0.02 -0.09,-0.02 -0.23,-0.19 -0.31,-0.51 -0.06,-0.2 -0.05,-0.4 -0.03,-0.53z"/>
   <path class="fil1" d="M19.23 13.45c0.7,-0.18 1.14,-0.26 1.49,-0.44 0.29,-0.14 0.22,-0.4 0.22,-0.4 0,0 0.04,0.18 0.06,0.29 0.01,0.15 -0.08,0.36 -0.23,0.42 0,0 -0.44,0.26 -1.41,0.53 -0.33,0.08 -1.06,0.17 -1.32,0.17 -0.03,0 -0.44,-0.02 -0.31,-0.02 0.35,-0.02 0.35,-0.37 0.35,-0.37 0,0 0.63,-0.05 1.15,-0.18z"/>
   <ellipse class="fil1" transform="matrix(0.715557 -0.151552 0.151552 0.715557 17.6875 13.4062)" rx="0.36" ry="0.72"/>
   <path class="fil4" d="M16.11 11.73l1.58 1.46c0,0 0.17,0.21 0.09,0.4 -0.08,0.17 -0.28,0.09 -0.28,0.09l-1.6 -0.97 0.21 -0.98z"/>
   <path class="fil5" d="M16.15 12.31l1.63 0.89c0,0 0.17,0.21 0.08,0.4 -0.08,0.17 -0.27,0.09 -0.27,0.09l-1.6 -0.97 0.16 -0.41z"/>
   <path class="fil4" d="M16.54 12.13c0,0.46 -0.11,0.84 -0.26,0.84 -0.15,0 -0.26,-0.38 -0.26,-0.84 0,-0.46 -0.07,-0.75 0.08,-0.75 0.15,0 0.44,0.29 0.44,0.75z"/>
   <path class="fil3" d="M16.28 12.26c0,0.71 -0.31,1.06 -0.53,1.06 -0.22,0 -0.35,-0.22 -0.35,-0.93 0,-0.7 0.17,-1.27 0.39,-1.27 0.23,0 0.49,0.44 0.49,1.14z"/>
   <g id="_639342192">
    <g>
     <g>
      <path class="fil6" d="M12.13 10.64c0,0 -1.47,-0.17 -2.33,-0.06 -0.69,0.1 -1.11,0.19 -1.3,0.48 -0.36,0.55 -0.19,2.08 0.02,2.71 0.18,0.57 1.2,2.09 1.2,2.09l2.5 -0.09 -0.09 -5.13zm0 0l0 0 0 0z"/>
     </g>
    </g>
    <g id="_639338960">
     <g>
      <path class="fil6" d="M12.13 10.64c0,0 1.46,-0.17 2.33,-0.06 0.69,0.1 1.11,0.19 1.3,0.48 0.36,0.55 0.18,2.08 -0.02,2.71 -0.18,0.57 -1.2,2.09 -1.2,2.09l-2.41 -0.04 0 -5.18zm0 0l0 0 0 0z"/>
     </g>
    </g>
   </g>
   <g>
    <g>
     <g>
      <path class="fil5" d="M12.13 10.69l-1.79 -0.15c0,0 0.44,2.56 1.32,2.37 0.88,-0.18 0.43,-0.23 0.43,-0.23l0.04 -1.99zm0 0l0 0 0 0z"/>
     </g>
    </g>
    <g>
     <g>
      <path class="fil5" d="M12.06 10.69l1.8 -0.15c0,0 -0.44,2.56 -1.32,2.37 -0.88,-0.18 -0.43,-0.23 -0.43,-0.23l-0.05 -1.99zm0 0l0 0 0 0z"/>
     </g>
    </g>
   </g>
   <g>
    <g>
     <g>
      <path class="fil7" d="M12.12 10.57l-1.61 -0.02c0,0 0.41,1.9 1.18,1.75 0.78,-0.15 0.38,-0.18 0.38,-0.18l0.05 -1.55zm0 0l0 0 0 0z"/>
     </g>
    </g>
    <g>
     <g>
      <path class="fil7" d="M12.05 10.57l1.63 -0.02c0,0 -0.43,1.9 -1.2,1.75 -0.78,-0.15 -0.38,-0.18 -0.38,-0.18l-0.05 -1.55zm0 0l0 0 0 0z"/>
     </g>
    </g>
   </g>
   <path class="fil7 str0" d="M12.44 11.36l-0.75 0c-0.38,0 -0.7,-0.31 -0.7,-0.7l0 -0.42c0,-0.39 0.32,-0.71 0.7,-0.71l0.75 0c0.39,0 0.71,0.32 0.71,0.71l0 0.42c0,0.39 -0.31,0.7 -0.71,0.7z"/>
   <g>
    <g>
     <g>
      <path class="fil6" d="M12.05 4.78c0,0 -2.54,-0.1 -2.72,2.9 -0.18,2.91 2.72,2.73 2.72,2.73l0 -5.63zm0 0l0 0 0 0z"/>
     </g>
    </g>
    <g>
     <g>
      <path class="fil6" d="M12.05 4.78c0,0 2.55,-0.1 2.73,2.9 0.18,2.91 -2.73,2.73 -2.73,2.73l0 -5.63zm0 0l0 0 0 0z"/>
     </g>
    </g>
   </g>
   <g>
    <g>
     <g>
      <path class="fil5" d="M12.05 6.89c0,0 -0.96,0 -1.67,-0.26 -0.6,-0.23 -1.05,-0.05 -1.05,1.05 0,2.92 2.72,2.73 2.72,2.73l0 -3.52zm0 0l0 0 0 0z"/>
     </g>
    </g>
    <g>
     <g>
      <path class="fil5" d="M12.05 6.89c0,0 0.97,0 1.68,-0.26 0.59,-0.23 1.05,-0.05 1.05,1.05 0,2.92 -2.73,2.73 -2.73,2.73l0 -3.52zm0 0l0 0 0 0z"/>
     </g>
    </g>
   </g>
   <path class="fil8" d="M12.3 5.44l-0.49 0c-0.19,0 -0.33,-0.14 -0.33,-0.31l0 0c0,-0.17 0.05,-0.31 0.05,-0.31 0,0 0.17,-0.08 0.52,-0.08 0.44,0 0.53,0.08 0.53,0.08 0,0 0.05,0.14 0.05,0.31l0 0c0,0.17 -0.15,0.31 -0.33,0.31z"/>
   <g id="Слой_5">
    <rect class="fil9" x="5.76" y="15.39" width="12.68" height="0.62"/>
   </g>
   <g id="Слой_6">
    <rect class="fil9" x="6.38" y="16" width="11.36" height="2.11"/>
   </g>
   <g id="Слой_8">
    <path class="fil10" d="M6.38 16l0 0 0 2.12c0,0 10.5,-2.21 10.53,-2.12 0.03,0.09 -10.53,0 -10.53,0z"/>
   </g>
   <path class="fil11 str1" d="M1.77 9.82c0.28,-4.7 4.81,-8.43 10.35,-8.43 5.53,0 10.06,3.73 10.35,8.43"/>
   <circle class="fil12 str2" transform="matrix(0.359936 -0.636709 0.636709 0.359936 22.9946 10.1235)" r="1.72"/>
   <circle class="fil12 str2" transform="matrix(0.359936 -0.636709 0.636709 0.359936 21.5172 6.66409)" r="1.72"/>
   <circle class="fil12 str2" transform="matrix(0.359936 -0.636709 0.636709 0.359936 19.1377 3.8345)" r="1.72"/>
   <circle class="fil12 str2" transform="matrix(0.359936 -0.636709 0.636709 0.359936 16.008 1.93263)" r="1.72"/>
   <circle class="fil12 str2" transform="matrix(0.359936 -0.636709 0.636709 0.359936 12.2685 1.31897)" r="1.72"/>
   <circle class="fil12 str2" transform="matrix(0.359936 -0.636709 0.636709 0.359936 8.62209 1.91661)" r="1.72"/>
   <circle class="fil12 str2" transform="matrix(0.359936 -0.636709 0.636709 0.359936 5.39032 3.72735)" r="1.72"/>
   <circle class="fil12 str2" transform="matrix(0.359936 -0.636709 0.636709 0.359936 2.91672 6.51227)" r="1.72"/>
   <circle class="fil12 str2" transform="matrix(0.359936 -0.636709 0.636709 0.359936 1.31893 10.0947)" r="1.72"/>
   <g id="Слой_x0020_1_0">
    <path class="fil5" d="M19.14 3.05c-0.44,0 -0.79,0.35 -0.79,0.79 0,0.44 0.35,0.79 0.79,0.79 0.44,0 0.79,-0.35 0.79,-0.79 0,-0.44 -0.36,-0.79 -0.79,-0.79l0 0zm0.26 1.14c-0.01,0.01 -0.03,0.03 -0.04,0.03 -0.01,0.01 -0.02,0.02 -0.02,0.04 -0.01,0.02 -0.01,0.04 -0.02,0.05l-0.05 0.15c-0.04,0.01 -0.09,0.02 -0.13,0.02l0 -0.09c0.01,-0.04 -0.03,-0.11 -0.07,-0.17 -0.02,-0.01 -0.03,-0.04 -0.03,-0.07l0 -0.1c0,-0.04 -0.01,-0.07 -0.05,-0.09 -0.04,-0.03 -0.11,-0.06 -0.16,-0.08 -0.03,-0.02 -0.07,-0.04 -0.09,-0.07l0 0c-0.02,-0.02 -0.05,-0.04 -0.07,-0.07 -0.02,-0.04 -0.08,-0.11 -0.11,-0.17 0.06,-0.15 0.18,-0.26 0.32,-0.32l0.08 0.03c0.04,0.02 0.07,-0.01 0.07,-0.04l0 -0.04c0.03,0 0.06,-0.01 0.08,-0.01l0.09 0.09c0.02,0.02 0.02,0.06 0,0.07l-0.02 0.02 -0.03 0.04c-0.01,0.01 -0.01,0.02 0,0.03l0.02 0.02c0.01,0.01 0.01,0.03 0,0.03l-0.03 0.03c-0.01,0.01 -0.01,0.01 -0.02,0.01 0,0 0,0 0,0l-0.02 0c-0.01,0 -0.01,0 -0.02,0.01l-0.04 0.03c-0.01,0.01 -0.01,0.01 -0.01,0.02 0,0 0,0.01 0,0.01l0.06 0.1c0.01,0.01 0,0.03 -0.03,0.03l-0.02 0c-0.01,0 -0.01,0 -0.01,-0.01l-0.03 -0.02c-0.01,-0.01 -0.02,-0.01 -0.04,-0.01 0,0 0,0 -0.01,0l-0.1 0.03c-0.02,0.01 -0.03,0.02 -0.03,0.04l0 0c0,0.02 0.01,0.02 0.02,0.03l0.04 0.02c0.02,0.02 0.06,0.03 0.09,0.03 0.04,0 0.07,0.09 0.11,0.1l0.21 0c0.03,0 0.05,0.01 0.07,0.03l0.04 0.04c0,0.04 -0.01,0.08 -0.04,0.11l0.04 0.07 0 0zm0.28 -0.29c-0.02,-0.01 -0.04,-0.02 -0.05,-0.04l-0.06 -0.08c-0.01,-0.01 -0.01,-0.03 -0.01,-0.05 0,-0.02 0.01,-0.02 0.01,-0.04l0.06 -0.1c0.01,-0.01 0.02,-0.02 0.03,-0.03l0.04 -0.01c0.05,0.09 0.07,0.18 0.07,0.28 0,0.03 0,0.05 -0.01,0.08l-0.08 -0.01 0 0z"/>
   </g>
   <g id="Слой_x0020_1_1_">
    <path class="fil5" d="M23.36 9.3l-0.73 0c-0.08,0 -0.15,0.07 -0.15,0.15l0 1.35c0,0.09 0.07,0.16 0.15,0.16l0.73 0c0.08,0 0.15,-0.07 0.15,-0.16l0 -1.35c0,-0.08 -0.07,-0.15 -0.15,-0.15l0 0zm-0.36 1.54c-0.06,0 -0.11,-0.04 -0.11,-0.1 0,-0.06 0.04,-0.11 0.11,-0.11 0.05,0 0.1,0.05 0.1,0.11 0,0.06 -0.05,0.1 -0.1,0.1zm0.36 -0.34c0,0.02 -0.02,0.04 -0.04,0.04l-0.64 0c-0.02,0 -0.04,-0.02 -0.04,-0.04l0 -1.01c0,-0.02 0.02,-0.04 0.04,-0.04l0.64 0c0.02,0 0.04,0.02 0.04,0.04l0 1.01 0 0z"/>
   </g>
   <g id="Слой_x0020_1_2_">
    <path class="fil5" d="M2.03 10.38c0.08,-0.07 0.12,-0.17 0.12,-0.27 0,-0.23 -0.21,-0.41 -0.48,-0.44 -0.09,-0.15 -0.29,-0.27 -0.53,-0.27 -0.32,0 -0.57,0.19 -0.57,0.44 0,0.11 0.04,0.19 0.12,0.27 -0.04,0.09 -0.11,0.15 -0.11,0.15 -0.01,0.02 -0.02,0.05 0,0.07 0,0.03 0.03,0.04 0.06,0.04 0.15,0 0.26,-0.05 0.34,-0.11 0.03,0.01 0.05,0.01 0.08,0.02 0.09,0.16 0.29,0.27 0.53,0.27 0.05,0 0.11,0 0.16,-0.01 0.08,0.05 0.2,0.1 0.35,0.1 0.02,0 0.04,-0.02 0.06,-0.03 0.01,-0.03 0.01,-0.06 -0.01,-0.07 -0.02,-0.01 -0.08,-0.08 -0.12,-0.16l0 0 0 0zm-1.08 -0.26l-0.04 0.03c-0.04,0.03 -0.08,0.04 -0.11,0.06 0,-0.01 0.01,-0.03 0.01,-0.04l0.05 -0.09 -0.07 -0.07c-0.04,-0.04 -0.08,-0.1 -0.08,-0.18 0,-0.17 0.2,-0.31 0.44,-0.31 0.24,0 0.44,0.14 0.44,0.31 0,0.17 -0.2,0.31 -0.44,0.31 -0.05,0 -0.09,-0.01 -0.13,-0.02l-0.07 0 0 0 0 0zm0.99 0.16l-0.07 0.07 0.04 0.09c0.01,0.02 0.02,0.03 0.03,0.04 -0.04,-0.01 -0.08,-0.03 -0.11,-0.06l-0.05 -0.02 -0.05 0c-0.05,0.01 -0.09,0.02 -0.13,0.02 -0.15,0 -0.29,-0.05 -0.36,-0.14 0.28,-0.03 0.49,-0.21 0.49,-0.43 0,-0.01 0,-0.02 0,-0.03 0.17,0.05 0.31,0.16 0.31,0.29 -0.02,0.07 -0.07,0.14 -0.1,0.17l0 0z"/>
   </g>
   <g id="Слой_x0020_1_3_">
    <path class="fil5" d="M5.36 4.44c-0.41,-0.58 -0.48,-0.64 -0.48,-0.85 0,-0.29 0.24,-0.53 0.53,-0.53 0.29,0 0.53,0.24 0.53,0.53 0,0.21 -0.07,0.27 -0.48,0.85 -0.03,0.05 -0.08,0.05 -0.1,0l0 0zm0.05 -0.63c0.12,0 0.22,-0.1 0.22,-0.22 0,-0.12 -0.1,-0.22 -0.22,-0.22 -0.13,0 -0.22,0.1 -0.22,0.22 0,0.12 0.09,0.22 0.22,0.22z"/>
   </g>
   <g id="Слой_x0020_1_4_">
    <path class="fil5" d="M20.86 6.52c0.38,-0.38 1.01,-0.38 1.4,0 0.02,0.03 0.08,0.03 0.1,0 0.03,-0.02 0.03,-0.08 0,-0.1 -0.45,-0.44 -1.17,-0.44 -1.61,0 -0.03,0.02 -0.03,0.08 0,0.1 0.03,0.03 0.07,0.03 0.11,0zm0.21 0.21c0.26,-0.26 0.7,-0.26 0.97,0 0.02,0.03 0.08,0.03 0.1,0 0.03,-0.02 0.03,-0.08 0,-0.1 -0.32,-0.33 -0.85,-0.33 -1.18,0 -0.02,0.02 -0.02,0.08 0,0.1 0.03,0.04 0.08,0.04 0.11,0zm0.22 0.22c0.15,-0.15 0.39,-0.15 0.53,0 0.03,0.03 0.08,0.03 0.11,0 0.03,-0.02 0.03,-0.08 0,-0.1 -0.21,-0.2 -0.55,-0.2 -0.75,0 -0.02,0.02 -0.02,0.08 0,0.1 0.03,0.03 0.07,0.03 0.11,0zm0.1 0.11c0.09,-0.09 0.24,-0.09 0.33,0 0.03,0.03 0.03,0.08 0,0.1l-0.11 0.11c-0.02,0.03 -0.08,0.03 -0.1,0l-0.11 -0.11c-0.04,-0.03 -0.04,-0.07 -0.01,-0.1z"/>
   </g>
   <g id="Слой_x0020_1_5_">
    <path class="fil5" d="M9.3 2.09l-0.12 -0.07c0,-0.07 0,-0.14 0,-0.2l0.12 -0.07c0.02,-0.01 0.02,-0.03 0.02,-0.04 -0.04,-0.11 -0.09,-0.21 -0.16,-0.28 -0.01,0 -0.03,-0.01 -0.05,0l-0.12 0.07c-0.05,-0.05 -0.11,-0.08 -0.18,-0.11l0 -0.14c0,-0.02 0,-0.03 -0.02,-0.04 -0.11,-0.02 -0.22,-0.02 -0.32,0 -0.02,0 -0.03,0.02 -0.03,0.04l0 0.14c-0.06,0.03 -0.12,0.06 -0.17,0.11l-0.12 -0.07c-0.02,-0.01 -0.04,-0.01 -0.05,0 -0.07,0.08 -0.12,0.18 -0.16,0.28 -0.01,0.01 0,0.03 0.02,0.04l0.12 0.07c0,0.07 0,0.14 0,0.2l-0.12 0.07c-0.02,0.01 -0.02,0.03 -0.02,0.05 0.04,0.1 0.09,0.2 0.16,0.27 0.01,0.01 0.03,0.02 0.05,0.01l0.12 -0.07c0.05,0.04 0.11,0.08 0.17,0.11l0 0.14c0,0.01 0.01,0.02 0.03,0.03 0.11,0.03 0.22,0.03 0.32,0 0.02,0 0.02,-0.02 0.02,-0.03l0 -0.15c0.07,-0.03 0.13,-0.06 0.18,-0.11l0.12 0.07c0.02,0.01 0.04,0.01 0.05,-0.01 0.07,-0.08 0.12,-0.17 0.16,-0.27 0,-0.02 -0.01,-0.04 -0.02,-0.04l0 0 0 0zm-0.68 0.06c-0.13,0 -0.24,-0.11 -0.24,-0.24 0,-0.13 0.11,-0.24 0.24,-0.24 0.13,0 0.24,0.11 0.24,0.24 -0.01,0.13 -0.12,0.24 -0.24,0.24z"/>
   </g>
   <g id="_2349102592816">
    <path class="fil5" d="M16.53 1.78c0,-0.01 0,-0.01 0,-0.02 0,-0.11 -0.09,-0.2 -0.21,-0.2 -0.03,0 -0.08,0.01 -0.1,0.03 -0.06,-0.12 -0.18,-0.2 -0.32,-0.2 -0.19,0 -0.34,0.16 -0.34,0.34 0,0.01 0,0.02 0,0.03 -0.15,0.01 -0.28,0.14 -0.28,0.3 0,0.17 0.14,0.3 0.3,0.3l0.85 0c0.17,0 0.3,-0.13 0.3,-0.3 -0.01,-0.13 -0.09,-0.24 -0.2,-0.28z"/>
   </g>
   <g id="Слой_x0020_1_6_">
    <path class="fil5" d="M3.49 5.99l-1.15 0c-0.07,0 -0.13,0.06 -0.13,0.13l0 0.79c0,0.07 0.06,0.13 0.13,0.13l1.15 0c0.07,0 0.13,-0.06 0.13,-0.13l0 -0.79c0,-0.07 -0.06,-0.13 -0.13,-0.13zm0 0.13l0 0.11c-0.06,0.05 -0.16,0.13 -0.37,0.29 -0.04,0.04 -0.14,0.13 -0.2,0.13 -0.06,0 -0.16,-0.09 -0.21,-0.13 -0.21,-0.16 -0.3,-0.24 -0.37,-0.29l0 -0.11 1.15 0zm-1.15 0.79l0 -0.51c0.07,0.05 0.15,0.12 0.3,0.23 0.06,0.04 0.16,0.15 0.28,0.15 0.11,0 0.22,-0.11 0.28,-0.15 0.13,-0.11 0.23,-0.18 0.29,-0.23l0 0.51 -1.15 0 0 0z"/>
   </g>
   <g>
    <g>
     <path class="fil13" d="M6.04 19.73l0 1.94c0,0.09 0.03,0.14 0.08,0.14 0.07,0 0.09,-0.04 0.09,-0.14l0 -1.94 0.62 0 0 1.86c0,0.54 -0.25,0.68 -0.72,0.68 -0.48,0 -0.68,-0.19 -0.68,-0.7l0 -1.85 0.61 0 0 0.01z"/>
     <polygon class="fil13" points="7.51,20.22 7.21,20.22 7.21,19.73 8.41,19.73 8.41,20.22 8.11,20.22 8.11,22.24 7.51,22.24 "/>
     <path class="fil13" d="M10.19 20.39l0 1.2c0,0.51 -0.28,0.7 -0.72,0.7 -0.43,0 -0.68,-0.2 -0.68,-0.7l0 -1.23c0,-0.47 0.29,-0.67 0.68,-0.67 0.4,0 0.72,0.2 0.72,0.7zm-0.79 -0.07l0 1.34c0,0.1 0.02,0.15 0.08,0.15 0.06,0 0.09,-0.05 0.09,-0.15l0 -1.35c0,-0.12 -0.02,-0.15 -0.1,-0.15 -0.04,0 -0.07,0.04 -0.07,0.16z"/>
     <path class="fil13" d="M10.65 19.73l0.75 0c0.44,0 0.65,0.26 0.65,0.68l0 0.17c0,0.47 -0.19,0.72 -0.66,0.72l-0.14 0 0 0.95 -0.6 0 0 -2.52 0 0zm0.59 1.09l0.06 0c0.09,0 0.13,-0.06 0.13,-0.2l0 -0.28c0,-0.13 -0.05,-0.16 -0.13,-0.16l-0.05 0 0 0.64 -0.01 0z"/>
     <path class="fil13" d="M13.85 20.39l0 1.2c0,0.51 -0.28,0.7 -0.72,0.7 -0.42,0 -0.68,-0.2 -0.68,-0.7l0 -1.23c0,-0.47 0.29,-0.67 0.69,-0.67 0.39,0 0.71,0.2 0.71,0.7zm-0.79 -0.07l0 1.34c0,0.1 0.02,0.15 0.09,0.15 0.05,0 0.08,-0.05 0.08,-0.15l0 -1.35c0,-0.12 -0.02,-0.15 -0.09,-0.15 -0.05,0 -0.08,0.04 -0.08,0.16z"/>
     <path class="fil13" d="M14.85 21.43l0 0.2c0,0.15 0.03,0.18 0.08,0.18 0.06,0 0.07,-0.05 0.07,-0.15 0,-0.18 -0.02,-0.24 -0.25,-0.45 -0.31,-0.3 -0.45,-0.44 -0.45,-0.81 0,-0.4 0.15,-0.71 0.64,-0.71 0.54,0 0.63,0.33 0.63,0.67l0 0.16 -0.52 0 0 -0.2c0,-0.14 -0.03,-0.16 -0.08,-0.16 -0.05,0 -0.07,0.03 -0.07,0.15 0,0.13 0.02,0.18 0.21,0.35 0.34,0.31 0.51,0.47 0.51,0.86 0,0.46 -0.14,0.76 -0.68,0.76 -0.47,0 -0.66,-0.27 -0.66,-0.71l0 -0.15 0.57 0 0 0.01z"/>
     <polygon class="fil13" points="16.27,20.22 15.97,20.22 15.97,19.73 17.17,19.73 17.17,20.22 16.87,20.22 16.87,22.24 16.27,22.24 "/>
     <polygon class="fil13" points="18.62,21.17 18.16,21.17 18.16,21.75 18.72,21.75 18.65,22.24 17.56,22.24 17.56,19.73 18.64,19.73 18.64,20.22 18.15,20.22 18.15,20.67 18.61,20.67 18.61,21.17 "/>
    </g>
   </g>
   <g>
    <g>
     <path class="fil13" d="M3.23 21.36l-0.05 0.87 -0.99 0 0.44 -4.11 1.55 0 0.44 4.11 -1.02 0 -0.05 -0.87 -0.32 0zm0.29 -0.81c-0.02,-0.31 -0.1,-1.39 -0.12,-1.61l-0.04 0c-0.01,0.18 -0.07,1.21 -0.09,1.61l0.25 0z"/>
    </g>
   </g>
   <g>
    <g>
     <path class="fil13" d="M20.34 20.64l0 1.74 -0.98 0 0 -4.11 1.21 0c0.81,0 1.06,0.41 1.06,1.06l0 0.15c0,0.47 -0.16,0.7 -0.4,0.82 0.3,0.13 0.38,0.36 0.38,0.96 0,0.49 -0.01,0.96 0.01,1.12l-0.95 0c-0.04,-0.07 -0.05,-0.37 -0.05,-1.3 0,-0.4 -0.04,-0.44 -0.24,-0.44l-0.04 0zm0.01 -0.73l0.07 0c0.15,0 0.23,-0.05 0.23,-0.32l0 -0.32c0,-0.23 -0.06,-0.28 -0.25,-0.28l-0.05 0 0 0.92z"/>
    </g>
   </g>
   <g id="Слой_x0020_1_7_">
    <path class="fil5" d="M12.02 0.54c-0.09,0 -0.17,0.06 -0.19,0.15 0,0 0,0 0,0 -0.11,0 -0.2,0.08 -0.2,0.19 0,0.02 0,0.03 0.01,0.04 -0.09,0.04 -0.15,0.13 -0.15,0.23 0,0.04 0.01,0.07 0.03,0.11 -0.07,0.04 -0.13,0.12 -0.13,0.21 0,0.11 0.07,0.18 0.15,0.23 0,0.02 0,0.02 0,0.04 0,0.13 0.1,0.22 0.22,0.22 0.01,0 0.03,0 0.04,0 0.03,0.09 0.11,0.15 0.21,0.15 0.12,0 0.22,-0.09 0.22,-0.22l0 -1.16c-0.02,-0.11 -0.1,-0.19 -0.21,-0.19l0 0 0 0zm1.13 0.92c0,-0.09 -0.06,-0.17 -0.13,-0.21 0.02,-0.04 0.03,-0.07 0.03,-0.11 0,-0.1 -0.06,-0.19 -0.15,-0.22 0,-0.02 0.01,-0.03 0.01,-0.05 0,-0.1 -0.09,-0.19 -0.2,-0.19 0,0 0,0 0,0 -0.02,-0.09 -0.1,-0.15 -0.19,-0.15 -0.11,0 -0.19,0.09 -0.19,0.19l0 1.15c0,0.13 0.09,0.22 0.22,0.22 0.09,0 0.17,-0.06 0.21,-0.14 0.01,0 0.02,0 0.03,0 0.13,0 0.22,-0.1 0.22,-0.23 0,-0.01 0,-0.02 0,-0.04 0.07,-0.03 0.14,-0.11 0.14,-0.22l0 0 0 0z"/>
   </g>
  </g>
 </g>
</svg>
